<?xml version="1.0" encoding="UTF-8" standalone="no"?>
<!-- Generator: Adobe Illustrator 19.0.0, SVG Export Plug-In . SVG Version: 6.00 Build 0)  -->

<svg
   version="1.1"
   id="Layer_1"
   x="0px"
   y="0px"
   viewBox="0 0 512 512"
   style="enable-background:new 0 0 512 512;"
   xml:space="preserve"
   width="512px"
   height="512px"
   sodipodi:docname="download2.svg"
   inkscape:version="1.1 (c68e22c387, 2021-05-23)"
   xmlns:inkscape="http://www.inkscape.org/namespaces/inkscape"
   xmlns:sodipodi="http://sodipodi.sourceforge.net/DTD/sodipodi-0.dtd"
   xmlns="http://www.w3.org/2000/svg"
   xmlns:svg="http://www.w3.org/2000/svg"><defs
   id="defs53" /><sodipodi:namedview
   id="namedview51"
   pagecolor="#ffffff"
   bordercolor="#666666"
   borderopacity="1.0"
   inkscape:pageshadow="2"
   inkscape:pageopacity="0.0"
   inkscape:pagecheckerboard="0"
   showgrid="false"
   inkscape:zoom="1.2734375"
   inkscape:cx="255.60736"
   inkscape:cy="256.39264"
   inkscape:window-width="1600"
   inkscape:window-height="837"
   inkscape:window-x="-8"
   inkscape:window-y="-8"
   inkscape:window-maximized="1"
   inkscape:current-layer="Layer_1" />
<g
   id="g6">
	<g
   id="g4">
		<path
   d="M498.966,339.946c-7.197,0-13.034,5.837-13.034,13.034v49.804c0,28.747-23.388,52.135-52.135,52.135H78.203    c-28.747,0-52.135-23.388-52.135-52.135V352.98c0-7.197-5.835-13.034-13.034-13.034C5.835,339.946,0,345.782,0,352.98v49.804    c0,43.121,35.082,78.203,78.203,78.203h355.594c43.121,0,78.203-35.082,78.203-78.203V352.98    C512,345.782,506.165,339.946,498.966,339.946z"
   fill="#c4c4c5"
   id="path2" />
	</g>
</g>
<g
   id="g12">
	<g
   id="g10">
		<path
   d="M419.833,391.3H92.167c-7.197,0-13.034,5.837-13.034,13.034s5.835,13.034,13.034,13.034h327.665    c7.199,0,13.034-5.835,13.034-13.034C432.866,397.137,427.031,391.3,419.833,391.3z"
   fill="#c4c4c5"
   id="path8" />
	</g>
</g>
<g
   id="g18">
	<g
   id="g16">
		<path
   d="M387.919,207.93c-4.795-5.367-13.034-5.834-18.404-1.038l-100.482,89.765V44.048c0-7.197-5.835-13.034-13.034-13.034    c-7.197,0-13.034,5.835-13.034,13.034v252.609l-100.482-89.764c-5.367-4.796-13.607-4.328-18.404,1.038    c-4.794,5.369-4.331,13.609,1.037,18.404l109.174,97.527c6.187,5.529,13.946,8.292,21.708,8.292    c7.759,0,15.519-2.763,21.708-8.289l109.174-97.53C392.25,221.537,392.714,213.297,387.919,207.93z"
   fill="#c4c4c5"
   id="path14" />
	</g>
</g>
<g
   id="g20">
</g>
<g
   id="g22">
</g>
<g
   id="g24">
</g>
<g
   id="g26">
</g>
<g
   id="g28">
</g>
<g
   id="g30">
</g>
<g
   id="g32">
</g>
<g
   id="g34">
</g>
<g
   id="g36">
</g>
<g
   id="g38">
</g>
<g
   id="g40">
</g>
<g
   id="g42">
</g>
<g
   id="g44">
</g>
<g
   id="g46">
</g>
<g
   id="g48">
</g>
<path
   style="fill:#ffffff;stroke:#000000;stroke-width:0.785276"
   d="m 245.79141,330.03749 c -1.94356,-0.67376 -5.17554,-2.32438 -7.18218,-3.66806 -5.10097,-3.41568 -112.96885,-99.795 -115.09081,-102.83295 -2.71616,-3.88865 -3.01374,-8.11086 -0.86349,-12.25125 0.99623,-1.91827 2.75678,-4.1762 3.91234,-5.01762 2.81591,-2.05041 9.23141,-2.62959 12.28023,-1.10864 1.2936,0.64534 25.04725,21.44795 52.7859,46.22804 27.73865,24.78009 50.73864,45.17145 51.11109,45.31415 0.37718,0.1445 0.76723,-56.79694 0.88045,-128.53146 0.20313,-128.696082 0.20447,-128.792489 1.82236,-130.959383 3.07669,-4.120743 5.5865,-5.406636 10.5527,-5.406636 4.9662,0 7.47601,1.285893 10.5527,5.406636 1.61789,2.166894 1.61923,2.263301 1.82236,130.959383 0.11648,73.79987 0.49855,128.68012 0.89482,128.53146 0.38035,-0.1427 23.37638,-20.53208 51.10229,-45.30976 27.72591,-24.77768 51.4731,-45.58029 52.77153,-46.22804 3.05759,-1.52533 9.46891,-0.94922 12.28903,1.10425 1.15556,0.84142 2.91611,3.09935 3.91234,5.01762 2.15002,4.13994 1.85292,8.35792 -0.86348,12.25886 -2.12361,3.04965 -109.98634,99.41486 -115.08747,102.81984 -2.00848,1.34065 -5.39326,3.01918 -7.52174,3.73006 -4.89993,1.63651 -15.28149,1.60731 -20.08097,-0.0565 z"
   id="path981" /><path
   style="fill:#ffffff;stroke:#000000;stroke-width:0.785276"
   d="m 86.046643,415.20181 c -3.372981,-1.91943 -6.73376,-7.28058 -6.73376,-10.74175 0,-2.92048 3.128677,-8.68627 5.750837,-10.59814 l 2.217094,-1.61652 H 255.92239 424.56397 l 2.81355,2.146 c 3.38828,2.58436 5.74087,8.06573 5.01643,11.68792 -0.78185,3.90926 -3.52819,7.67567 -6.82216,9.35613 -2.98681,1.52376 -5.44455,1.54596 -169.73682,1.53323 l -166.706136,-0.0129 z"
   id="path1020" /><path
   style="fill:#ffffff;stroke:#000000;stroke-width:0.785276"
   d="m 67.92638,480.03143 c -1.295705,-0.1833 -5.182822,-1.04601 -8.638036,-1.91714 C 36.974963,472.48866 17.998857,456.93797 8.1668672,436.22086 1.1084971,421.34808 -0.25333171,410.75814 0.13866287,373.79141 0.36042719,352.87811 0.56493789,349.5256 1.7511817,347.35768 c 2.875046,-5.2543 9.3875563,-8.18462 14.4654433,-6.50877 3.955988,1.3056 7.958625,5.11842 8.888756,8.46723 0.475654,1.71252 0.801746,14.52896 0.80435,31.61346 0.0049,32.46375 0.417044,35.64574 6.021718,46.49654 4.113111,7.9631 14.264958,17.97932 22.2526,21.95529 12.480828,6.21254 -6.205544,5.68605 201.815951,5.68605 208.02149,0 189.33513,0.52649 201.81595,-5.68605 7.98764,-3.97597 18.13949,-13.99219 22.2526,-21.95529 5.60468,-10.8508 6.01677,-14.03279 6.02172,-46.49654 0.002,-17.0845 0.32869,-29.90094 0.80435,-31.61346 0.93013,-3.34881 4.93277,-7.16163 8.88875,-8.46723 5.07789,-1.67585 11.5904,1.25447 14.46545,6.50877 1.18624,2.16792 1.39075,5.52043 1.61252,26.43373 0.39199,36.96673 -0.96984,47.55667 -8.02821,62.42945 -6.17543,13.01233 -15.92007,24.00643 -28.40727,32.04968 -6.948,4.47533 -12.88672,7.13362 -21.92893,9.81583 l -7.06748,2.09643 -188.07362,0.091 c -103.44049,0.05 -189.133744,-0.0591 -190.42945,-0.24233 z"
   id="path1059" /></svg>
